<?xml version="1.0" standalone="no"?><!DOCTYPE svg PUBLIC "-//W3C//DTD SVG 1.1//EN" "http://www.w3.org/Graphics/SVG/1.1/DTD/svg11.dtd"><svg t="1552289163605" class="icon" style="" viewBox="0 0 1024 1024" version="1.1" xmlns="http://www.w3.org/2000/svg" p-id="1790" xmlns:xlink="http://www.w3.org/1999/xlink" width="32" height="32"><defs><style type="text/css"></style></defs><path d="M513.317163 588.583609c-42.14921 0-76.395443-34.246233-76.395443-76.395443s34.246233-76.395443 76.395443-76.395443 76.395443 34.246233 76.395443 76.395443-34.622565 76.395443-76.395443 76.395443z m0-137.737597c-33.869901 0-61.342154 27.472253-61.342154 61.342154s27.472253 61.342154 61.342154 61.342154 61.342154-27.472253 61.342153-61.342154c-0.376332-33.869901-27.848585-61.342154-61.342153-61.342154z m0 109.889012c-27.095921 0-48.92319-21.827269-48.92319-48.92319s21.827269-48.92319 48.92319-48.92319 48.92319 21.827269 48.92319 48.92319c-0.376332 27.095921-22.203602 48.92319-48.92319 48.92319z m0-82.416759c-18.440279 0-33.869901 15.053289-33.869901 33.869901s15.053289 33.869901 33.869901 33.869901 33.869901-15.053289 33.869901-33.869901-15.429621-33.869901-33.869901-33.869901z" fill="#1afa29" p-id="1791"></path><path d="M485.468578 946.47556h-103.867696v-209.617052c0-45.912532 19.569276-88.438074 53.815509-118.544653-0.752664-0.752664-1.881661-1.128997-2.634326-1.881661H210.369717c-72.632121 0-131.339949-59.08416-131.339949-131.339949v-103.867695h209.617053c45.912532 0 88.438074 19.569276 118.544653 53.815509 0.752664-0.752664 1.128997-1.881661 1.881661-2.634326V209.24072c0-72.632121 59.08416-131.339949 131.339948-131.339948h103.867696v209.617052c0 45.912532-19.569276 88.438074-53.815509 118.544653 0.752664 0.752664 1.881661 1.128997 2.634326 1.881661h222.412348c72.632121 0 131.339949 59.08416 131.339949 131.339949V643.528115H737.611172c-45.912532 0-88.438074-19.569276-118.544652-53.815509-0.752664 0.752664-1.128997 1.881661-1.881661 2.634325v222.412349c0 72.632121-59.08416 131.716281-131.716281 131.71628z m-88.814407-15.053289H485.468578c64.352811 0 116.286659-52.31018 116.286659-116.286659V587.07828l1.505329-1.881661c2.634326-3.38699 5.644983-7.150312 8.279309-11.666299l5.644984-9.031974 6.77398 8.655642c27.472253 35.37523 68.868798 55.69717 113.276001 55.69717h194.563763v-88.814407c0-64.352811-52.31018-116.286659-116.286659-116.286659h-227.680999l-1.881662-1.505329c-3.38699-2.634326-7.150312-5.644983-11.666299-8.279309l-9.031973-5.644984 8.655641-6.77398c35.37523-27.472253 55.69717-68.868798 55.69717-113.276001V92.954061h-88.814406c-64.352811 0-116.286659 52.31018-116.28666 116.286659v227.681l-1.505329 2.257993c-2.634326 3.38699-5.644983 7.150312-8.279309 11.666299l-5.644983 9.031974-6.77398-8.655641c-27.472253-35.37523-68.868798-55.69717-113.276002-55.69717H93.706725v88.814406c0 64.352811 52.31018 116.286659 116.28666 116.286659h227.680999l1.881662 1.505329c3.38699 2.634326 7.150312 5.644983 11.666299 8.279309l9.031973 5.644984-8.655641 6.77398c-35.37523 27.472253-55.69717 68.868798-55.69717 113.276001v195.316428z" fill="#1afa29" p-id="1792"></path><path d="M513.317163 616.055862c-57.202499 0-103.867696-46.665197-103.867696-103.867696 0-57.202499 46.665197-103.867696 103.867696-103.867696s103.867696 46.665197 103.867696 103.867696c0 57.202499-46.665197 103.867696-103.867696 103.867696z m0-192.682102c-48.92319 0-88.814406 39.891216-88.814407 88.814406s39.891216 88.814406 88.814407 88.814407c48.92319 0 88.814406-39.891216 88.814406-88.814407s-39.891216-88.814406-88.814406-88.814406zM842.984197 327.032709l-3.763322-6.397648c-41.772878-71.126792-106.502021-127.200294-182.521132-158.43587l-7.150313-3.010657 16.182286-39.514885 7.150313 3.010658c84.674752 34.622565 156.554208 97.093716 203.219404 176.123484l3.763323 6.397648-36.880559 21.82727z m-173.865491-175.747152c73.761117 31.98824 136.6086 86.556413 179.134142 155.425211l10.913635-6.397648c-43.654539-70.750459-108.760015-127.576626-185.155458-160.31753l-4.892319 11.289967zM865.564131 375.579566l-3.010658-6.77398c-3.38699-8.279309-7.150312-16.182286-10.913635-24.085263l-3.38699-6.77398 38.009556-18.816611 3.38699 6.77398c4.139655 8.655641 8.279309 17.687615 12.042631 26.719588l3.010658 7.150313-39.138552 15.805953z m3.38699-30.859243c1.881661 3.763322 3.38699 7.526645 5.268651 11.289967l11.666299-4.892319c-1.881661-4.139655-3.763322-7.902977-5.644983-12.042631l-11.289967 5.644983zM760.943771 351.117971l-4.139655-6.021315c-26.343256-38.385888-61.718486-70.374127-102.362367-92.577729l-6.77398-3.763322 20.321941-37.256891 6.77398 3.763322c46.665197 25.590592 86.932745 62.094818 117.039324 105.749357l4.139654 6.021316-34.998897 24.085262z m-92.954061-108.00735c38.009555 21.827269 71.126792 51.933848 96.717383 87.309078l10.16097-7.150313c-26.719588-37.256891-61.342154-68.492466-100.857038-91.0724l-6.021315 10.913635zM788.039691 403.428151l-3.010658-6.77398c-3.763322-8.655641-7.902977-17.311283-12.418963-25.590591l-3.763322-6.773981 37.25689-20.32194 3.763323 6.77398c5.268651 9.408306 9.784638 19.192944 14.300624 29.353914l3.010658 6.77398-39.138552 16.558618z m1.128997-33.117236c2.257993 4.515987 4.515987 9.031974 6.397648 13.54796l11.666299-4.892319c-2.257993-4.892319-4.515987-9.784638-7.150312-14.676957l-10.913635 6.021316zM160.693863 375.579566l-39.514885-16.182286 3.010658-7.150312c40.643881-99.351709 117.039324-178.75781 215.262036-223.165013l6.77398-3.010658 17.687615 38.76222-6.77398 3.010658C268.701213 208.111724 200.208747 279.238515 163.328188 368.805586l-2.634325 6.77398z m-19.945609-24.085262l11.666299 4.892319c37.633223-87.309078 105.373025-157.683205 191.176774-198.703418l-5.268652-11.289967C249.508269 188.542448 179.886806 260.798236 140.748254 351.494304zM368.052922 162.951856l-15.429622-39.514884 7.150313-2.634326c7.902977-3.010658 15.429621-5.644983 22.956266-8.279309l7.150312-2.257993 13.171628 40.643881-7.150312 2.257993c-6.77398 2.257993-13.924293 4.515987-20.698273 7.526645l-7.150312 2.257993z m4.139654-31.235575l4.515987 11.666299c2.257993-0.752664 4.892319-1.881661 7.150312-2.634326l-3.763322-12.042631c-2.634326 1.128997-5.268651 2.257993-7.902977 3.010658zM249.884601 377.461227l-37.256891-20.32194 3.763323-6.77398C241.605292 303.70011 278.485851 263.432562 322.14039 233.325983l6.021315-4.139654 24.085263 34.998897-6.021316 4.139655c-38.385888 26.343256-70.374127 61.718486-92.577728 102.362366l-3.763323 6.77398z m-16.558618-26.343256l10.913635 6.021316C266.066887 319.129732 296.173466 286.012495 331.548695 260.421904l-7.150312-10.160971C287.517824 276.60419 255.905917 311.603087 233.325983 351.117971zM360.526277 903.950018l-7.150312-3.010657c-68.492466-28.224917-128.705623-74.137449-173.865491-133.22161l-4.515987-6.021316 33.869901-25.966924 4.515987 6.021316c40.643881 53.062845 94.835722 94.45939 156.554208 119.673649l7.150312 3.010658-16.558618 39.514884z m-164.457185-139.242925C237.465638 816.640941 291.281147 858.037486 352.246968 884.380742l4.892319-11.666299c-58.707828-25.590592-111.018008-65.105476-150.909225-115.533995l-10.16097 7.526645zM166.715178 750.406468l-4.139654-6.397648c-6.021316-9.408306-12.042631-19.192944-17.687615-28.977581l-3.763322-6.397648 37.25689-20.698273 3.763323 6.77398c4.892319 9.031974 10.16097 17.687615 15.805953 25.966924l4.139655 6.397648-35.37523 23.332598z m-4.892319-36.127894c3.010658 4.892319 6.021316 10.16097 9.031974 15.053289l10.537302-6.77398c-3.010658-4.515987-5.644983-9.408306-8.655641-14.300625l-10.913635 6.021316zM358.268284 812.501286l-6.77398-3.763322c-46.665197-25.590592-86.932745-62.094818-117.039324-105.749357l-4.139655-6.021316 34.998898-24.085262 4.139654 6.021315c26.343256 38.385888 61.718486 70.374127 102.362367 92.577729l6.77398 3.763322-20.32194 37.256891z m-107.254686-111.770672c26.719588 37.256891 61.342154 68.492466 100.857038 91.0724l6.021315-10.913635c-38.009555-21.827269-71.126792-51.933848-96.717383-87.309078l-10.16097 7.150313zM692.827637 892.283719l-18.816612-38.009555 6.773981-3.38699c82.793091-41.020213 147.522234-110.265344 182.521131-195.69276l3.010658-7.150313 39.514885 16.182286-3.010658 6.773981c-38.76222 94.835722-111.018008 171.983829-202.843073 217.520029l-7.150312 3.763322z m1.128997-31.235575l5.644983 11.289967c83.169423-43.278207 149.027563-113.652334 185.908122-199.456082l-11.666299-4.892319c-35.751562 83.169423-99.351709 151.285557-179.886806 193.058434zM636.377802 914.110989l-13.171628-40.643881 7.150313-2.257994c9.031974-3.010658 17.687615-6.021316 25.966924-9.784638l7.150312-3.010658 16.182286 39.514885-6.77398 3.010658c-9.408306 3.763322-19.192944 7.526645-28.977582 10.537302l-7.526645 2.634326z m6.021316-30.859243l3.763322 12.042631c4.515987-1.505329 9.408306-3.38699 13.924293-5.268651l-4.892319-11.666299c-4.139655 1.881661-8.655641 3.38699-12.795296 4.892319zM683.042999 804.221977l-22.203602-36.127894 6.397648-3.763322c44.030871-27.095921 80.535097-65.481808 105.373025-110.641676l3.763322-6.77398 37.256891 20.32194-3.763322 6.77398c-28.224917 51.933848-69.997795 95.588387-120.426314 126.823962l-6.397648 3.38699z m-1.505329-31.235575l6.397648 10.537303c43.278207-27.848585 79.406101-65.85814 104.996692-110.641676l-10.913634-6.021316c-24.461595 42.901874-59.08416 79.406101-100.480706 106.125689z" fill="#1afa29" p-id="1793"></path><path d="M477.565601 429.018743l-1.128997-7.902977c-25.590592-159.188534 61.718486-190.424109 65.481808-191.929437l5.268652-1.881662 26.719588 35.37523-10.913635 2.634326c-68.492466 17.687615-44.407203 144.887909-44.030871 146.393237l1.505329 7.150313-42.901874 10.16097zM541.918412 245.744947c-16.558618 8.655641-68.868798 45.159868-51.933848 164.833517l12.795296-3.010658c-4.139655-27.848585-15.053289-127.200294 45.912533-153.167218l-6.773981-8.655641zM760.567438 568.261669l-2.634325-10.913635c-16.558618-68.868798-144.511577-46.288864-145.640573-45.912532l-7.150313 1.128996-9.408306-42.525542 7.902977-1.128996c159.564866-23.708931 189.671444 64.352811 190.800441 68.116133l1.505329 5.268652-35.37523 25.966924z m-101.609702-75.642779c40.267549 0 92.954061 8.655641 110.265344 50.804851l9.031973-6.77398c-8.279309-16.93495-44.407203-69.24513-164.457185-54.191841l2.634326 12.795296c9.031974-1.128997 24.461595-2.634326 42.525542-2.634326zM488.855568 801.211319l-27.848585-34.246233 10.913634-3.38699c67.739802-20.32194 38.385888-146.76957 38.009556-147.898566l-1.881661-7.150313 42.149209-11.666299 1.505329 7.902977c32.364572 158.059537-53.815509 193.058434-57.578831 194.187431l-5.268651 2.257993z m-2.634326-27.09592l7.150313 8.655641c16.182286-9.408306 66.987137-48.170526 45.159867-167.09151l-12.418963 3.38699c4.892319 28.224917 19.569276 126.823962-39.891217 155.048879zM369.181918 558.100698c-112.899669 0-136.6086-67.739802-137.737596-70.750459l-1.881661-5.268651 35.375229-26.343257 2.634326 10.913635c17.311283 68.492466 144.887909 44.783535 146.016906 44.783536l7.150312-1.505329 9.784638 42.525542-7.902977 1.128997c-19.569276 3.38699-37.633223 4.515987-53.439177 4.515986z m-121.55531-70.750459c8.655641 16.93495 45.159868 68.868798 164.833517 52.686512l-3.010658-12.795296c-27.848585 4.139655-127.200294 14.300625-152.790886-46.665196l-9.031973 6.77398z" fill="#1afa29" p-id="1794"></path></svg>